<svg width="100" height="100" viewBox="0 0 100 100" fill="none" xmlns="http://www.w3.org/2000/svg">
<path d="M64.2668 68.6064C63.7299 74.0002 63.4245 80.2478 64.4659 84.7231C69.4294 88.8369 68.3408 91.0895 65.9049 90.7843L51.524 90.6893C51.3678 90.8169 51.1681 90.8631 50.9424 90.8144H30.0662L32.493 70.0361C32.4934 70.0361 42.2293 69.6017 46.886 69.3941L46.885 69.3882C46.6851 69.3882 64.2585 68.6068 64.2668 68.6064Z" fill="#FEAB43"/>
<path d="M32.5006 70.0433L32.061 73.77L49.6287 69.282L32.5006 70.0433Z" fill="#B7711A"/>
<path d="M51.3381 90.4718C51.3322 90.5119 51.3389 90.5544 51.3599 90.5907C51.3808 90.6257 51.414 90.6519 51.4531 90.6632C51.4921 90.6745 51.5342 90.6695 51.5713 90.6494C51.6082 90.6307 51.6364 90.5982 51.6533 90.5606C51.7631 90.3117 51.8518 90.0503 51.911 89.7777C52.178 88.6795 51.7783 87.4312 51.0517 86.5944C50.6866 86.1542 50.2691 85.7777 49.8303 85.4412L49.9956 85.7802C49.9759 82.672 49.8981 79.5651 49.7625 76.4581C49.7511 76.198 49.7394 75.9378 49.7272 75.6776C49.7252 75.6351 49.7077 75.5951 49.6771 75.5651C49.6466 75.5351 49.6057 75.5188 49.5631 75.5188C49.5206 75.52 49.4797 75.5363 49.4492 75.5676C49.4185 75.5976 49.401 75.6389 49.399 75.6814C49.3869 75.9416 49.3751 76.2017 49.3638 76.4619C49.2282 79.5701 49.1504 82.6795 49.1306 85.7877L49.132 86.0003L49.296 86.1266C49.6943 86.4406 50.0642 86.7808 50.3763 87.1573C50.9901 87.8877 51.3885 88.7383 51.389 89.7239C51.3916 89.969 51.3733 90.2192 51.3381 90.4718Z" fill="black"/>
<path d="M50.3599 10.6273C49.0433 8.57194 45.9955 8.71265 44.8738 10.8804L16.3228 66.0593C15.2013 68.2271 16.8469 70.7962 19.2852 70.6837L81.3468 67.8201C83.7851 67.7075 85.1872 64.9978 83.8707 62.9424L50.3599 10.6273Z" fill="#FEAB43"/>
<path d="M19.0435 70.7068L21.4581 70.5954C17.3872 68.8999 18.1662 65.0524 23.2653 55.931C28.3645 46.8096 35.2873 29.9539 44.0505 12.5339L16.1828 66.2335C15.0948 68.3287 16.6851 70.8156 19.0435 70.7068Z" fill="#B7711A"/>
<path d="M60.3196 40.2421C61.3284 40.1956 62.0926 38.9963 62.0265 37.5635C61.9604 36.1307 61.089 35.0069 60.0802 35.0534C59.0714 35.1 58.3073 36.2992 58.3734 37.732C58.4395 39.1649 59.3109 40.2887 60.3196 40.2421Z" fill="black"/>
<path d="M47.5525 40.8617C48.5613 40.8152 49.3255 39.6159 49.2594 38.1831C49.1933 36.7503 48.3219 35.6265 47.3131 35.673C46.3044 35.7196 45.5402 36.9189 45.6063 38.3517C45.6724 39.7845 46.5438 40.9083 47.5525 40.8617Z" fill="black"/>
<path d="M52.5236 45.7381C52.5071 45.7036 52.4944 45.6666 52.4932 45.6289C52.4921 45.5914 52.5025 45.5563 52.5241 45.529C52.5458 45.5016 52.5775 45.4836 52.6144 45.4761C52.6513 45.4686 52.6902 45.4725 52.7275 45.4807C52.8098 45.4995 52.8876 45.5176 52.9633 45.5374C53.2682 45.6176 53.5344 45.7169 53.7773 45.8377C54.6252 46.2777 55.5556 46.3386 56.3404 45.6578C56.3954 45.6121 56.4495 45.5639 56.5026 45.5131C56.5319 45.4849 56.5697 45.4648 56.6108 45.4601C56.6518 45.4553 56.6926 45.466 56.7249 45.4901C56.7571 45.5141 56.7788 45.5503 56.7858 45.591C56.7929 45.6318 56.7844 45.6737 56.7655 45.7097C56.727 45.7815 56.6856 45.8517 56.6406 45.9205C56.0637 46.9804 54.3909 47.2251 53.3879 46.6218C53.0871 46.4725 52.8363 46.2419 52.651 45.9596C52.6051 45.8894 52.5634 45.8162 52.5236 45.7381Z" fill="black"/>
<path d="M56.245 50.1467C56.9631 47.9368 60.0895 47.9368 60.8076 50.1467C61.1287 51.135 62.0496 51.8041 63.0887 51.8041C65.4123 51.8041 66.3785 54.7775 64.4986 56.1433C63.658 56.754 63.3061 57.8367 63.6273 58.8251C64.3453 61.0349 61.816 62.8726 59.9362 61.5068C59.0955 60.896 57.9571 60.896 57.1164 61.5068C55.2366 62.8726 52.7073 61.0349 53.4252 58.8251C53.7464 57.8367 53.3946 56.754 52.554 56.1433C50.674 54.7775 51.6401 51.8041 53.9638 51.8041C55.003 51.8041 55.9239 51.135 56.245 50.1467Z" fill="#263DAD"/>
<path d="M57.0902 50.006C57.8082 47.7962 60.9346 47.7962 61.6527 50.006C61.9738 50.9944 62.8947 51.6634 63.9339 51.6634C66.2576 51.6634 67.2237 54.6369 65.3437 56.0026C64.5031 56.6134 64.1513 57.6961 64.4725 58.6844C65.1905 60.8943 62.6612 62.7319 60.7813 61.3662C59.9406 60.7553 58.8022 60.7553 57.9615 61.3662C56.0817 62.7319 53.5524 60.8943 54.2704 58.6844C54.5916 57.6961 54.2397 56.6134 53.3991 56.0026C51.5193 54.6369 52.4854 51.6634 54.809 51.6634C55.8481 51.6634 56.769 50.9944 57.0902 50.006Z" fill="#415FF4"/>
<path d="M42.5403 68.0101C50.5968 68.8022 63.1656 60.2614 59.6754 56.0169C56.6528 52.3411 51.3364 58.5378 45.9051 57.431C43.1439 56.8682 44.2337 54.4989 44.2337 54.4989L32.3277 49.6235C30.977 60.4006 34.4839 67.218 42.5403 68.0101Z" fill="#FEAB43"/>
<path d="M32.4327 49.6754C32.4362 49.6349 32.423 49.5941 32.3946 49.562C32.3663 49.5298 32.3254 49.5088 32.2809 49.5037C32.2362 49.4985 32.1913 49.5097 32.1559 49.5346C32.1204 49.5594 32.0974 49.5961 32.0908 49.6362C31.922 50.6758 31.7976 51.719 31.7283 52.7671C31.4851 56.9065 31.9204 61.4839 35.0357 64.955C36.8651 66.9894 39.6885 68.1773 42.4975 68.4175C46.8342 68.7285 50.848 67.1125 54.3072 65.091C56.0309 64.0459 57.65 62.8263 58.9486 61.3234C60.1632 59.9079 61.4589 57.6767 59.9499 55.8337C59.2002 54.8042 57.6021 54.3368 56.3542 54.6258C55.0807 54.8566 53.9663 55.3604 52.8518 55.8162C50.6593 56.7287 48.3257 57.6979 45.95 57.2398C45.7053 57.1923 45.4717 57.1263 45.2547 57.0331C44.2157 56.6585 44.0043 55.465 44.3925 54.5612C44.4094 54.5232 44.4093 54.4805 44.3919 54.4422C44.3744 54.404 44.341 54.3734 44.2991 54.3572C44.2572 54.3409 44.21 54.3404 44.168 54.3555C44.126 54.3707 44.0925 54.4004 44.0747 54.438C43.6032 55.4079 43.8237 56.8958 45.0752 57.3729C45.3271 57.4869 45.5905 57.5658 45.8602 57.6233C48.4211 58.1608 50.8832 57.1625 53.0919 56.2896C55.1995 55.4507 58.014 54.2509 59.4007 56.2014C60.5723 57.6143 59.5387 59.5434 58.3436 60.8911C57.1025 62.2955 55.5234 63.4665 53.8456 64.463C50.4893 66.4 46.5311 67.9135 42.5831 67.6039C39.946 67.3641 37.4134 66.284 35.7361 64.4263C32.8776 61.2652 32.2714 56.8881 32.2785 52.7902C32.2861 51.7546 32.3409 50.7163 32.4327 49.6754Z" fill="black"/>
</svg>
