<svg preserveAspectRatio="none" width="100%" height="100%" overflow="visible" style="display: block;" viewBox="0 0 452.469 445.06" fill="none" xmlns="http://www.w3.org/2000/svg">
<path id="Star 1" d="M165.751 28.5694C197.077 -9.52312 255.392 -9.52312 286.718 28.5694V28.5694C301.332 46.3394 323.02 56.784 346.025 57.1299V57.1299C395.338 57.8713 431.697 103.464 421.447 151.706V151.706C416.665 174.211 422.022 197.68 436.094 215.881V215.881C466.261 254.898 453.285 311.751 409.177 333.816V333.816C388.6 344.109 373.591 362.929 368.135 385.28V385.28C356.439 433.192 303.899 458.494 259.147 437.766V437.766C238.271 428.096 214.198 428.096 193.322 437.766V437.766C148.571 458.494 96.0301 433.192 84.334 385.28V385.28C78.8779 362.929 63.8689 344.109 43.2926 333.816V333.816C-0.815478 311.751 -13.7919 254.898 16.3748 215.881V215.881C30.4475 197.68 35.8041 174.211 31.0223 151.706V151.706C20.7719 103.464 57.131 57.8713 106.444 57.1299V57.1299C129.449 56.784 151.137 46.3393 165.751 28.5694V28.5694Z" fill="#FEAB43"/>
</svg>
